# xmcd CD database file
#
# Track frame offsets:
#	150
#	31938
#	66215
#	93593
#	121340
#	155438
#	176334
#	211271
#	244401
#	268658
#
# Disc length: 4214 seconds
#
# Revision: 0
# Processed by: cddbd v1.5.2PL0 Copyright (c) Steve Scherf et al.
# Submitted via: CDex 1.82
#
DISCID=8710740a
DTITLE=Ross Taggart Trio - Ross Taggart
DYEAR=2001
DGENRE=Jazz
TTITLE0=Ross Taggart - Mysteries and Tall Tales
TTITLE1=Ross Taggart - Open Book
TTITLE2=Ross Taggart - Match the Hatch
TTITLE3=Ross Taggart - Thankfully
TTITLE4=Ross Taggart - Passage
TTITLE5=Ross Taggart - She Waits
TTITLE6=Ross Taggart - Maybe Next Time
TTITLE7=Ross Taggart - February
TTITLE8=Ross Taggart - Mayumi
TTITLE9=Ross Taggart - Midnight Dance
EXTD=YEAR: 2001
EXTT0=
EXTT1=
EXTT2=
EXTT3=
EXTT4=
EXTT5=
EXTT6=
EXTT7=
EXTT8=
EXTT9=
PLAYORDER=
